<?xml version="1.0" standalone="no"?>
<!DOCTYPE svg PUBLIC "-//W3C//DTD SVG 20010904//EN"
 "http://www.w3.org/TR/2001/REC-SVG-20010904/DTD/svg10.dtd">
<svg version="1.0" xmlns="http://www.w3.org/2000/svg"
 width="513.000000pt" height="513.000000pt" viewBox="0 0 513.000000 513.000000"
 preserveAspectRatio="xMidYMid meet">
<metadata>
Created by potrace 1.11, written by Peter Selinger 2001-2013
</metadata>
<g transform="translate(0.000000,513.000000) scale(0.100000,-0.100000)"
fill="#000000" stroke="none">
<path d="M1070 4288 c-68 -34 -133 -101 -162 -166 -24 -53 -25 -55 -96 -105
l-54 -38 -153 4 c-84 2 -157 7 -162 10 -5 3 -20 8 -34 11 -179 38 -252 52
-271 49 -28 -4 -57 -30 -57 -51 1 -10 -3 -33 -7 -52 -23 -115 25 -288 81 -291
11 -1 29 -2 40 -3 14 -1 24 -13 33 -41 13 -37 16 -52 26 -125 7 -47 19 -85 31
-100 22 -27 56 -104 61 -139 6 -48 25 -70 82 -96 54 -25 83 -61 146 -181 57
-110 81 -132 146 -139 129 -13 223 -50 293 -115 28 -25 72 -49 127 -70 47 -17
136 -51 198 -75 l113 -44 -5 32 c-2 18 -7 44 -10 58 -22 100 -27 289 -12 376
10 50 14 34 14 -49 0 -173 13 -281 44 -383 16 -53 97 -214 118 -235 22 -22
129 -224 161 -305 36 -91 87 -261 95 -320 4 -22 8 -51 10 -65 18 -123 23 -272
11 -383 -15 -144 -28 -156 -187 -172 -123 -13 -155 -25 -181 -70 -17 -28 -17
-33 -2 -62 16 -33 44 -47 117 -59 21 -3 48 -8 60 -10 30 -6 165 -5 201 1 158
29 296 118 380 245 19 28 84 197 100 260 3 8 16 53 30 100 93 303 141 473 148
520 3 22 -23 74 -60 119 -24 29 -59 88 -79 130 -19 42 -39 84 -45 93 -5 10 -9
27 -9 39 0 15 10 7 36 -32 47 -71 132 -151 205 -194 71 -41 165 -85 183 -85 7
0 16 -3 20 -7 3 -4 12 -8 19 -9 7 -1 41 -10 77 -19 184 -48 473 -69 710 -51
152 11 260 48 260 88 0 10 -24 69 -54 131 -55 116 -71 157 -62 157 3 0 17 -21
31 -47 14 -27 41 -75 60 -108 20 -33 43 -76 53 -95 9 -19 20 -37 23 -40 3 -3
29 -52 58 -110 70 -137 139 -252 210 -348 59 -80 194 -221 269 -282 58 -48
122 -134 122 -164 0 -29 -23 -43 -112 -71 -44 -14 -60 -24 -71 -47 -13 -26
-13 -94 -1 -107 7 -7 136 -15 244 -16 92 0 111 3 152 24 56 29 86 61 111 116
18 42 57 189 63 240 2 17 6 36 9 44 26 69 23 133 -9 181 -87 132 -152 314
-182 515 -3 17 -7 41 -10 55 -3 14 -8 39 -11 55 -42 280 -144 549 -296 780
-167 253 -385 475 -697 707 -181 136 -351 201 -605 233 -59 8 -265 8 -315 1
-19 -3 -62 -8 -95 -11 -58 -5 -87 -9 -150 -20 -59 -11 -90 -16 -115 -20 -14
-1 -59 -10 -100 -19 -269 -56 -364 -54 -545 14 -114 43 -256 37 -360 -15 -26
-14 -51 -25 -53 -25 -3 0 -2 39 2 88 9 112 9 103 3 134 -8 41 -15 48 -48 48
-32 0 -37 7 -42 57 -2 17 -12 44 -23 60 -10 15 -19 30 -19 33 0 3 -10 21 -22
41 -43 69 -113 82 -203 37z m-146 -737 c15 -17 15 -20 -3 -42 -16 -20 -22 -22
-44 -12 -25 12 -29 35 -12 63 10 16 41 12 59 -9z m-304 -36 c17 -10 11 -50 -9
-62 -16 -10 -24 -9 -42 6 -20 16 -22 22 -12 44 12 25 35 29 63 12z m153 -114
c35 -5 131 -169 142 -241 5 -31 1 -40 -27 -67 -35 -33 -110 -63 -159 -63 -43
0 -85 25 -97 58 -14 42 -5 153 18 215 32 84 62 108 123 98z"/>
<path d="M719 3151 c-38 -19 -45 -45 -18 -72 40 -40 111 -32 143 16 14 21 14
25 -2 45 -22 27 -82 33 -123 11z"/>
<path d="M1135 2563 c4 -15 11 -39 15 -53 19 -51 53 -197 57 -240 6 -56 -25
-141 -68 -190 -17 -19 -48 -55 -68 -80 -20 -25 -39 -47 -42 -50 -4 -3 -32 -41
-64 -85 -132 -184 -176 -293 -171 -420 2 -44 6 -90 9 -102 15 -61 84 -186 134
-243 12 -14 30 -35 40 -48 19 -24 130 -59 143 -45 9 10 29 70 36 109 3 14 6
29 6 33 1 3 -2 26 -7 51 -23 125 -7 159 99 208 130 61 269 177 403 337 62 74
75 98 69 129 -4 22 -97 206 -147 291 -10 17 -29 51 -43 76 -13 25 -50 86 -80
135 -31 49 -63 103 -72 121 -21 38 -84 68 -167 79 -18 2 -45 6 -60 10 -26 5
-27 4 -22 -23z"/>
<path d="M2863 1978 c-22 -28 -73 -175 -87 -248 -2 -14 -7 -36 -10 -50 -15
-65 -18 -96 -21 -248 -3 -200 -3 -200 -117 -237 -46 -14 -115 -42 -155 -61
-60 -29 -73 -41 -86 -72 -18 -45 -10 -70 31 -98 29 -20 41 -21 229 -19 175 3
225 6 283 19 103 22 186 77 251 166 15 19 57 94 94 165 78 149 226 405 261
452 13 17 24 34 24 37 0 4 25 45 56 92 48 76 52 86 32 80 -97 -28 -159 -35
-288 -31 -69 3 -136 6 -150 8 -45 7 -125 20 -145 23 -11 2 -33 7 -50 9 -16 3
-37 8 -45 10 -48 13 -98 15 -107 3z"/>
</g>
</svg>
